<svg
                  width="12"
                  height="12"
                  viewBox="0 0 12 12"
                  fill="none"
                  xmlns="http://www.w3.org/2000/svg"
                >
                  <path
                    d="M1.50653 0.891648L2.73699 10.4634C2.82362 11.1373 3.68999 11.358 4.08839 10.8076L5.62691 8.68229C5.7828 8.46694 6.10708 8.4777 6.24835 8.70292L8.07853 11.6207C8.29863 11.9716 8.76152 12.0776 9.11242 11.8575L9.23006 11.7837C9.58096 11.5637 9.68699 11.1008 9.46689 10.7499L7.63648 7.83171C7.49513 7.60636 7.62682 7.30959 7.88874 7.26319L10.4609 6.80756C11.1302 6.689 11.3092 5.81247 10.74 5.44095L2.66031 0.16797C2.12446 -0.181762 1.42495 0.257005 1.50653 0.891648Z"
                    fill="white"
                  />
                </svg>