<svg
                width="16"
                height="16"
                viewBox="0 0 16 16"
                fill="none"
                xmlns="http://www.w3.org/2000/svg"
              >
                <path
                  d="M3.82141 0.180328L0.268753 3.37399C-0.0895844 3.69614 -0.0895844 4.30368 0.268753 4.62582L3.82141 7.81949C4.29465 8.2449 5 7.87033 5 7.19357V4.99991H9.5C11.9853 4.99991 14 7.01462 14 9.49991C14 11.9852 11.9853 13.9999 9.5 13.9999H1C0.447708 13.9999 0 14.4476 0 14.9999C0 15.5522 0.447708 15.9999 1 15.9999H9.5C13.0898 15.9999 16 13.0898 16 9.49991C16 5.91006 13.0898 2.99991 9.5 2.99991H5V0.806244C5 0.129486 4.29465 -0.245087 3.82141 0.180328Z"
                  fill="#D6DEE6"
                />
              </svg>