<svg width="184" height="32" viewBox="0 0 184 32" fill="none" xmlns="http://www.w3.org/2000/svg">
    <path d="M121.705 8.15199C121.705 7.50978 122.152 7.07037 122.806 7.07037C123.461 7.07037 123.908 7.50978 123.943 8.15199V22.9228C123.943 23.565 123.461 24.0044 122.841 24.0044C122.152 24.0044 121.705 23.565 121.705 22.9228V8.15199Z" fill="#1E2532"/>
    <path d="M48.9188 8.0168H56.8729C57.4926 8.0168 57.9402 8.42241 57.9402 9.06462C57.9402 9.67303 57.4926 10.1124 56.8729 10.1124H50.1239V15.0473H55.8743C56.4941 15.0473 56.9417 15.4867 56.9417 16.0951C56.9417 16.7035 56.4941 17.1091 55.8743 17.1091H50.1239V22.889C50.1239 23.5312 49.6763 24.0044 48.9877 24.0044C48.3334 24.0044 47.8514 23.5312 47.8514 22.889V9.06462C47.8514 8.4562 48.299 8.0168 48.9188 8.0168Z" fill="#1E2532"/>
    <path d="M69.6476 12.9179C69.6476 12.2756 70.1297 11.8362 70.7495 11.8362C71.4037 11.8362 71.8513 12.2756 71.8513 12.9179V18.6301C71.8513 21.8074 69.7164 23.903 66.5142 23.903C63.3463 23.903 61.2459 21.7736 61.2459 18.6301V12.9179C61.2459 12.2756 61.6935 11.8362 62.3478 11.8362C63.002 11.8362 63.4841 12.2756 63.4841 12.9179V18.4611C63.4841 20.4892 64.6893 21.875 66.5486 21.875C68.4424 21.875 69.6476 20.523 69.6476 18.4611V12.9179Z" fill="#1E2532"/>
    <path d="M96.6775 11.9039C95.4724 11.9039 94.405 12.3771 93.5786 13.1207V12.9855C93.5786 12.3433 93.1309 11.9039 92.4423 11.9039C91.8225 11.9039 91.3404 12.3433 91.3404 12.9855V22.9228C91.3404 23.565 91.788 24.0044 92.4767 24.0044C93.0965 24.0044 93.5786 23.565 93.5786 22.9228V17.3795C93.5786 15.3177 94.7838 13.9657 96.6775 13.9657C98.5369 13.9657 99.7421 15.3515 99.7421 17.3795V22.9228C99.7421 23.565 100.224 24.0044 100.878 24.0044C101.533 24.0044 101.98 23.565 101.98 22.9228V17.1767C101.946 14.0333 99.8454 11.9039 96.6775 11.9039Z" fill="#1E2532"/>
    <path d="M137.963 11.9039C137.343 11.9039 137.033 12.208 136.792 12.9179L133.659 21.199L129.94 12.9517C129.665 12.3433 129.423 11.9377 128.735 11.9377C127.908 11.9377 127.358 12.6137 127.805 13.5601L132.626 23.8692L132.385 24.5114L130.663 28.9055C130.456 29.4463 130.698 29.9533 131.248 30.1561C131.765 30.3589 132.316 30.1223 132.522 29.6153L138.824 13.3911C139.203 12.4109 138.686 11.9039 137.963 11.9039Z" fill="#1E2532"/>
    <path d="M150.152 12.9517C150.152 13.4925 149.773 13.8981 149.188 13.8981H146.468V20.3878C146.468 21.4694 146.984 21.9426 147.949 21.9426H148.809C149.395 21.9426 149.946 22.3482 149.946 22.9228C149.946 23.4636 149.429 23.9706 148.844 23.9706H147.57C145.297 23.9706 144.23 22.6862 144.23 20.1512V13.8981H142.921C142.37 13.8981 141.957 13.4925 141.957 12.9179C141.957 12.3771 142.336 11.9714 142.921 11.9714H144.23V10.1124C144.23 9.4702 144.677 8.997 145.332 8.997C145.986 8.997 146.468 9.4702 146.468 10.1124V11.9714H149.188C149.739 11.9714 150.152 12.3771 150.152 12.9517Z" fill="#1E2532"/>
    <path d="M155.455 11.9039C154.801 11.9039 154.353 12.3433 154.353 12.9855V22.6524C154.353 23.2946 154.801 23.734 155.489 23.734C156.109 23.734 156.591 23.2946 156.591 22.6524V12.9855C156.557 12.3433 156.075 11.9039 155.455 11.9039Z" fill="#1E2532"/>
    <path d="M154.078 8.59139C154.078 7.84779 154.697 7.23938 155.455 7.23938C156.178 7.23938 156.798 7.84779 156.832 8.59139C156.832 9.33501 156.212 9.94343 155.455 9.94343C154.663 9.94343 154.078 9.33501 154.078 8.59139Z" fill="#1E2532"/>
    <path d="M167.059 13.6953C168.224 13.6953 168.912 13.9916 169.456 14.226C169.812 14.3795 170.106 14.5065 170.433 14.5065C170.95 14.5065 171.329 14.1347 171.329 13.6615C171.329 12.5461 169.4 11.6673 167.231 11.6673C163.375 11.6673 160.861 14.4051 160.861 17.8189C160.861 21.2328 163.34 23.9706 167.197 23.9706C169.4 23.9706 171.329 23.0918 171.329 22.0102C171.329 21.5032 170.95 21.1314 170.433 21.1314C170.106 21.1314 169.812 21.2584 169.456 21.4119C168.912 21.6463 168.224 21.9426 167.059 21.9426C164.649 21.9426 163.065 20.1174 163.065 17.8189C163.065 15.5205 164.649 13.6953 167.059 13.6953Z" fill="#1E2532"/>
    <path d="M179.145 13.4925C177.802 13.4925 177.01 14.1009 177.01 14.9797C177.01 16.0788 178.324 16.4472 179.813 16.8646C181.757 17.4098 184 18.0386 184 20.4892C184 22.4496 182.382 24.0044 179.386 24.0044C176.769 24.0044 174.531 22.7876 174.531 21.6046C174.531 21.0638 174.91 20.7934 175.392 20.7934C175.695 20.7934 176.013 20.9853 176.415 21.2279C177.106 21.6453 178.047 22.213 179.593 22.213C181.039 22.213 181.831 21.5032 181.831 20.5568C181.831 19.3464 180.465 18.975 178.94 18.5606C177.016 18.0376 174.841 17.4461 174.841 15.0135C174.841 13.1207 176.528 11.6673 179.386 11.6673C181.624 11.6673 183.483 12.6813 183.483 13.6277C183.483 14.1347 183.105 14.4389 182.623 14.4389C182.292 14.4389 181.967 14.2875 181.577 14.1058C180.992 13.8332 180.261 13.4925 179.145 13.4925Z" fill="#1E2532"/>
    <path fillRule="evenodd" clipRule="evenodd" d="M112 11.6673C108.454 11.6673 106.009 14.4051 106.009 17.8189C106.009 21.2328 108.626 23.9706 112.276 23.9706C114.858 23.9706 116.787 22.8552 116.787 21.8074C116.787 21.3342 116.442 20.9962 115.926 20.9962C115.677 20.9962 115.425 21.1279 115.102 21.2964C114.528 21.5954 113.732 22.0102 112.345 22.0102C110.072 22.0102 108.591 20.523 108.281 18.495H116.167C117.028 18.495 117.51 18.0893 117.51 17.0077C117.51 14.4389 115.65 11.6673 112 11.6673ZM108.35 16.6359C108.764 14.6755 110.279 13.6615 111.931 13.6615C113.515 13.6615 115.271 14.5065 115.65 16.6359H108.35Z" fill="#1E2532"/>
    <path d="M78.428 13.1207C79.2544 12.3771 80.3219 11.9039 81.527 11.9039C84.7293 11.9039 86.8297 14.0333 86.8297 17.1767V22.9228C86.8297 23.565 86.3821 24.0044 85.7278 24.0044C85.0736 24.0044 84.5916 23.565 84.5916 22.9228V17.3795C84.5916 15.3515 83.3863 13.9657 81.527 13.9657C79.6332 13.9657 78.428 15.3177 78.428 17.3795V22.9228C78.428 23.565 77.946 24.0044 77.3261 24.0044C76.6375 24.0044 76.1899 23.565 76.1899 22.9228V12.9855C76.1899 12.3433 76.6719 11.9039 77.2917 11.9039C77.9804 11.9039 78.428 12.3433 78.428 12.9855V13.1207Z" fill="#1E2532"/>
    <path d="M31.9009 4.05C31.9009 1.81325 30.0933 0 27.8635 0H4.03746C1.80763 0 0 1.81325 0 4.05V27.95C0 30.1868 1.80763 32 4.03746 32H27.8635C30.0933 32 31.9009 30.1868 31.9009 27.95V4.05Z" fill="#009BF3"/>
    <path fillRule="evenodd" clipRule="evenodd" d="M13.5579 8C13.1174 8 12.7604 8.35817 12.7604 8.8V9.7C12.2034 9.7 11.5323 10.0411 11.265 10.8711C11.1333 11.28 10.8828 11.4711 10.6307 11.5578C10.3628 11.65 10.0847 11.6256 9.9365 11.5776C9.7895 11.5293 9.63278 11.5033 9.47059 11.5033C8.64473 11.5033 7.97523 12.1749 7.97523 13.0033C7.97523 13.8317 8.64473 14.5033 9.47059 14.5033C9.63579 14.5033 9.79474 14.4764 9.94332 14.4268C10.0941 14.3798 10.3685 14.3563 10.6322 14.4458C10.8835 14.5311 11.1334 14.7204 11.265 15.1289C11.5323 15.9589 12.2034 16.3 12.7604 16.3V17.2C12.7604 17.6418 13.1174 18 13.5579 18H21.1344C21.5748 18 21.9319 17.6418 21.9319 17.2V14.8C21.9319 14.3582 21.5748 14 21.1344 14H13.5579C13.1174 14 12.7604 14.3582 12.7604 14.8V15.7C12.4423 15.7 12.0155 15.5077 11.8342 14.9444C11.6404 14.3429 11.2418 14.0194 10.8239 13.8775C10.7859 13.8646 10.7478 13.8532 10.7097 13.8432C10.8715 13.6036 10.9659 13.3145 10.9659 13.0033C10.9659 12.6909 10.8708 12.4009 10.708 12.1608C10.7469 12.1505 10.7859 12.1387 10.8248 12.1253C11.2423 11.9817 11.6406 11.6567 11.8342 11.0556C12.0155 10.4923 12.4423 10.3 12.7604 10.3V11.2C12.7604 11.6418 13.1174 12 13.5579 12H23.1282C23.5686 12 23.9257 11.6418 23.9257 11.2V8.8C23.9257 8.35817 23.5686 8 23.1282 8H13.5579ZM8.57338 13.0033C8.57338 12.5063 8.97507 12.1033 9.47059 12.1033C9.56888 12.1033 9.66291 12.1191 9.75065 12.1479C10.1094 12.266 10.3678 12.6048 10.3678 13.0033C10.3678 13.5004 9.96611 13.9033 9.47059 13.9033C8.97507 13.9033 8.57338 13.5004 8.57338 13.0033Z" fill="white"/>
    <path d="M12.7604 20.8C12.7604 20.3582 13.1174 20 13.5579 20H15.9505C16.3909 20 16.748 20.3582 16.748 20.8V23.2C16.748 23.6418 16.3909 24 15.9505 24H13.5579C13.1174 24 12.7604 23.6418 12.7604 23.2V20.8Z" fill="white"/>
</svg>