<svg
                  width="12"
                  height="12"
                  viewBox="0 0 12 12"
                  fill="none"
                  xmlns="http://www.w3.org/2000/svg"
                >
                  <path
                    fillRule="evenodd"
                    clipRule="evenodd"
                    d="M2 -4.37114e-07C0.895431 -4.85396e-07 -3.91405e-08 0.89543 -8.74228e-08 2L-2.18557e-07 5L6 5L6 3.60477C6 3.09721 6.56428 2.81626 6.94287 3.13532L9.78499 5.53055C10.0717 5.77215 10.0717 6.22785 9.78499 6.46945L6.94287 8.86468C6.56428 9.18375 6 8.90279 6 8.39523L6 7L-3.0598e-07 7L-4.37114e-07 10C-4.85396e-07 11.1046 0.89543 12 2 12L10 12C11.1046 12 12 11.1046 12 10L12 2C12 0.895431 11.1046 -3.91403e-08 10 -8.74225e-08L2 -4.37114e-07Z"
                    fill="white"
                  />
                </svg>