<svg
                  width="12"
                  height="12"
                  viewBox="0 0 12 12"
                  fill="none"
                  xmlns="http://www.w3.org/2000/svg"
                >
                  <path
                    fillRule="evenodd"
                    clipRule="evenodd"
                    d="M5.99999 10.5C8.85464 10.5 10.8401 7.8923 11.6254 6.64708C11.8773 6.24773 11.8773 5.75227 11.6254 5.35292C10.8401 4.1077 8.85464 1.5 5.99999 1.5C3.14533 1.5 1.15991 4.1077 0.374565 5.35292C0.122704 5.75227 0.122703 6.24773 0.374565 6.64708C1.15991 7.8923 3.14533 10.5 5.99999 10.5ZM5.99999 9C7.65684 9 8.99999 7.65685 8.99999 6C8.99999 4.34315 7.65684 3 5.99999 3C4.34313 3 2.99999 4.34315 2.99999 6C2.99999 7.65685 4.34313 9 5.99999 9Z"
                    fill="white"
                  />
                  <circle cx="6" cy="6" r="1.5" fill="white" />
                </svg>