<svg
                  width="12"
                  height="12"
                  viewBox="0 0 12 12"
                  fill="none"
                  xmlns="http://www.w3.org/2000/svg"
                >
                  <g clipPath="url(#clip0)">
                    <path
                      fillRule="evenodd"
                      clipRule="evenodd"
                      d="M1.86033 1.65681L1.86033 1.65681C1.79089 1.72302 1.72303 1.79088 1.65681 1.86033C1.49913 2.02572 1.42029 2.10841 1.3666 2.24149C1.324 2.34708 1.30388 2.49935 1.31758 2.61237C1.33486 2.75483 1.40039 2.87514 1.53146 3.11576L1.54749 3.1452C1.79072 3.59174 1.91234 3.81501 1.90492 4.02038C1.89841 4.20047 1.82728 4.3722 1.70454 4.50414C1.56457 4.6546 1.3207 4.72649 0.832947 4.87025L0.800727 4.87975C0.537853 4.95723 0.406417 4.99597 0.293444 5.08453C0.2038 5.1548 0.110368 5.27674 0.0658383 5.38158C0.00971946 5.5137 0.00703935 5.62802 0.00167911 5.85666C0.000562176 5.90431 0 5.95209 0 6C0 6.04791 0.000562175 6.09569 0.00167911 6.14334C0.00703934 6.37198 0.00971946 6.4863 0.0658383 6.61842C0.110368 6.72326 0.2038 6.8452 0.293444 6.91547C0.406417 7.00403 0.537853 7.04277 0.800726 7.12025L0.832947 7.12975C1.3207 7.27351 1.56457 7.3454 1.70454 7.49586C1.82728 7.6278 1.89841 7.79953 1.90492 7.97962C1.91234 8.18499 1.79072 8.40826 1.54749 8.8548L1.53146 8.88424C1.40039 9.12486 1.33486 9.24517 1.31758 9.38763C1.30388 9.50065 1.324 9.65292 1.3666 9.75851C1.42029 9.89159 1.49913 9.97428 1.65681 10.1397C1.72303 10.2091 1.79089 10.277 1.86033 10.3432C2.02572 10.5009 2.10842 10.5797 2.2415 10.6334C2.34708 10.676 2.49935 10.6961 2.61238 10.6824C2.75483 10.6651 2.87515 10.5996 3.11577 10.4685L3.1452 10.4525C3.59174 10.2093 3.81502 10.0877 4.02039 10.0951C4.20047 10.1016 4.3722 10.1727 4.50414 10.2955C4.65461 10.4354 4.72649 10.6793 4.87025 11.1671L4.87975 11.1993C4.95723 11.4621 4.99597 11.5936 5.08453 11.7066C5.1548 11.7962 5.27674 11.8896 5.38158 11.9342C5.5137 11.9903 5.62802 11.993 5.85667 11.9983C5.90431 11.9994 5.95209 12 6 12C6.04791 12 6.09569 11.9994 6.14334 11.9983C6.37198 11.993 6.4863 11.9903 6.61843 11.9342C6.72327 11.8896 6.8452 11.7962 6.91548 11.7066C7.00404 11.5936 7.04278 11.4621 7.12026 11.1993L7.12975 11.1671C7.27352 10.6793 7.3454 10.4354 7.49586 10.2955C7.6278 10.1727 7.79953 10.1016 7.97962 10.0951C8.18499 10.0877 8.40826 10.2093 8.85481 10.4525L8.88423 10.4685L8.88425 10.4686C9.12486 10.5996 9.24517 10.6651 9.38762 10.6824C9.50065 10.6961 9.65292 10.676 9.75851 10.6334C9.89159 10.5797 9.97428 10.5009 10.1397 10.3432C10.2091 10.277 10.277 10.2091 10.3432 10.1397C10.5009 9.97428 10.5797 9.89158 10.6334 9.7585C10.676 9.65292 10.6961 9.50065 10.6824 9.38762C10.6651 9.24516 10.5996 9.12485 10.4685 8.88423L10.4525 8.8548C10.2093 8.40826 10.0877 8.18499 10.0951 7.97962C10.1016 7.79953 10.1727 7.6278 10.2955 7.49586C10.4354 7.3454 10.6793 7.27351 11.1671 7.12975L11.1993 7.12026C11.4621 7.04277 11.5936 7.00403 11.7066 6.91547C11.7962 6.8452 11.8896 6.72326 11.9342 6.61842C11.9903 6.4863 11.993 6.37198 11.9983 6.14334C11.9994 6.09569 12 6.04791 12 6C12 5.95209 11.9994 5.90431 11.9983 5.85666C11.993 5.62802 11.9903 5.5137 11.9342 5.38158C11.8896 5.27674 11.7962 5.1548 11.7066 5.08453C11.5936 4.99597 11.4621 4.95723 11.1993 4.87974L11.1671 4.87025C10.6793 4.72649 10.4354 4.6546 10.2955 4.50414C10.1727 4.3722 10.1016 4.20047 10.0951 4.02038C10.0877 3.81501 10.2093 3.59174 10.4525 3.1452L10.4685 3.11577C10.5996 2.87515 10.6651 2.75483 10.6824 2.61238C10.6961 2.49935 10.676 2.34708 10.6334 2.2415C10.5797 2.10842 10.5009 2.02572 10.3432 1.86033C10.277 1.79089 10.2091 1.72303 10.1397 1.65681C9.97428 1.49913 9.89159 1.42028 9.75851 1.3666C9.65292 1.324 9.50065 1.30388 9.38762 1.31758C9.24517 1.33485 9.12486 1.40039 8.88424 1.53146L8.85481 1.54749C8.40826 1.79072 8.18499 1.91234 7.97962 1.90492C7.79953 1.89841 7.6278 1.82728 7.49586 1.70454C7.3454 1.56457 7.27352 1.32069 7.12975 0.832945L7.12026 0.800726C7.04278 0.537853 7.00404 0.406416 6.91548 0.293444C6.8452 0.2038 6.72327 0.110368 6.61843 0.0658379C6.4863 0.00971909 6.37198 0.00703892 6.14334 0.00167858C6.0957 0.000561602 6.04791 0 6 0C5.95209 0 5.90431 0.000561568 5.85667 0.00167848C5.62802 0.00703866 5.5137 0.00971875 5.38158 0.0658376C5.27674 0.110368 5.1548 0.2038 5.08453 0.293443C4.99597 0.406416 4.95723 0.537853 4.87975 0.800726L4.87025 0.832944C4.72649 1.32069 4.65461 1.56457 4.50414 1.70454C4.3722 1.82728 4.20047 1.89841 4.02039 1.90492C3.81502 1.91234 3.59174 1.79072 3.1452 1.54749L3.11577 1.53145C2.87515 1.40039 2.75483 1.33485 2.61238 1.31758C2.49935 1.30387 2.34708 1.324 2.2415 1.36659C2.10842 1.42028 2.02572 1.49913 1.86033 1.65681ZM6 9C4.34315 9 3 7.65685 3 6C3 4.34315 4.34315 3 6 3C7.65685 3 9 4.34315 9 6C9 7.65685 7.65685 9 6 9Z"
                      fill="white"
                    />
                    <circle cx="6" cy="6" r="1.5" fill="white" />
                  </g>
                  <defs>
                    <clipPath id="clip0">
                      <rect width="12" height="12" fill="white" />
                    </clipPath>
                  </defs>
                </svg>