<svg
                  width="12"
                  height="12"
                  viewBox="0 0 12 12"
                  fill="none"
                  xmlns="http://www.w3.org/2000/svg"
                >
                  <path
                    fillRule="evenodd"
                    clipRule="evenodd"
                    d="M0.75 1.5V10.5C0.75 11.3284 1.42157 12 2.25 12H9.75C10.5784 12 11.25 11.3284 11.25 10.5V4.37132C11.25 3.9735 11.092 3.59197 10.8107 3.31066L7.93934 0.43934C7.65804 0.158035 7.2765 0 6.87868 0H2.25C1.42157 0 0.75 0.671573 0.75 1.5ZM3 6C2.58579 6 2.25 6.33579 2.25 6.75C2.25 7.16421 2.58579 7.5 3 7.5H9C9.41421 7.5 9.75 7.16421 9.75 6.75C9.75 6.33579 9.41421 6 9 6H3ZM2.25 3.75C2.25 3.33579 2.58579 3 3 3H6C6.41421 3 6.75 3.33579 6.75 3.75C6.75 4.16421 6.41421 4.5 6 4.5H3C2.58579 4.5 2.25 4.16421 2.25 3.75ZM3 9C2.58579 9 2.25 9.33579 2.25 9.75C2.25 10.1642 2.58579 10.5 3 10.5H7.5C7.91421 10.5 8.25 10.1642 8.25 9.75C8.25 9.33579 7.91421 9 7.5 9H3Z"
                    fill="white"
                  />
                </svg>