<svg
                width="16"
                height="16"
                viewBox="0 0 16 16"
                fill="none"
                xmlns="http://www.w3.org/2000/svg"
              >
                <g clip-path="url(#clip0)">
                  <path
                    fill-rule="evenodd"
                    clip-rule="evenodd"
                    d="M10.9913 13.5305C11.114 13.6923 11.0648 13.9259 10.8817 14.0137C9.06212 14.8856 6.9288 14.8843 5.11016 14.0098C4.92702 13.9217 4.87825 13.6878 5.00143 13.5262L6.25559 11.8804C6.34839 11.7586 6.51179 11.7171 6.65604 11.7685C7.52259 12.0768 8.47421 12.0772 9.34096 11.7695C9.48546 11.7182 9.64907 11.76 9.74171 11.8822L10.9913 13.5305ZM13.5305 10.9914C13.6923 11.1141 13.9259 11.0649 14.0137 10.8817C14.8794 9.07515 14.8843 6.95924 14.0284 5.14914C13.9418 4.96603 13.7093 4.91531 13.5467 5.03616L11.8892 6.26855C11.7655 6.36054 11.7224 6.52495 11.7735 6.6704C12.0768 7.53311 12.0755 8.47903 11.7695 9.341C11.7182 9.4855 11.76 9.64912 11.8822 9.74175L13.5305 10.9914ZM9.88562 9.88562C10.9247 8.84651 10.927 7.16318 9.89245 6.12125L9.87876 6.10756C8.83985 5.07601 7.16329 5.07527 6.12347 6.10534L6.10534 6.12348C5.07392 7.16465 5.076 8.84423 6.11159 9.88283L6.11438 9.88562L6.11718 9.88842C7.1588 10.927 8.84515 10.9261 9.88562 9.88562ZM4.23156 9.34401C4.28289 9.48826 4.24143 9.65166 4.11965 9.74446L2.47387 10.9986C2.31223 11.1218 2.07831 11.073 1.99024 10.8899C1.11956 9.07932 1.1144 6.95684 1.97474 5.14257C2.06157 4.95946 2.29432 4.90906 2.45671 5.0303L4.1123 6.26637C4.2357 6.3585 4.27848 6.52274 4.22732 6.66799C3.92282 7.53235 3.92423 8.48043 4.23156 9.34401ZM6.26633 4.11232C6.35846 4.23572 6.5227 4.2785 6.66795 4.22733C7.52753 3.92451 8.4699 3.92423 9.32963 4.22648C9.47508 4.27762 9.6395 4.23456 9.73149 4.11084L10.9639 2.45328C11.0847 2.29074 11.034 2.05823 10.8509 1.97165C9.04889 1.11953 6.9438 1.12056 5.14253 1.97476C4.95941 2.06159 4.90902 2.29434 5.03026 2.45673L6.26633 4.11232ZM13.6569 13.6569C10.5327 16.781 5.46734 16.781 2.34315 13.6569C-0.781049 10.5327 -0.781048 5.46734 2.34315 2.34315C5.46734 -0.781049 10.5327 -0.781049 13.6569 2.34315C16.781 5.46734 16.781 10.5327 13.6569 13.6569Z"
                    fill="#D6DEE6"
                  />
                </g>
                <defs>
                  <clipPath id="clip0">
                    <rect width="16" height="16" fill="white" />
                  </clipPath>
                </defs>
              </svg>