<svg width="13" height="16" viewBox="0 0 13 16" fill="none" xmlns="http://www.w3.org/2000/svg">
									<path d="M0.00870993 1.18884L1.64932 13.9512C1.76482 14.8498 2.91998 15.144 3.45119 14.4101L5.50254 11.5764C5.7104 11.2892 6.14277 11.3036 6.33113 11.6039L8.77138 15.4943C9.06484 15.9621 9.68202 16.1035 10.1499 15.81L10.3067 15.7116C10.7746 15.4182 10.916 14.801 10.6225 14.3331L8.18197 10.4423C7.99351 10.1418 8.16909 9.7461 8.51832 9.68423L11.9478 9.07672C12.8403 8.91864 13.079 7.74994 12.3199 7.25458L1.54708 0.223939C0.83262 -0.242369 -0.10007 0.342653 0.00870993 1.18884Z" fill="white"/>
								</svg>