<svg
                width="12"
                height="12"
                viewBox="0 0 12 12"
                fill="none"
                xmlns="http://www.w3.org/2000/svg"
              >
                <path
                  fillRule="evenodd"
                  clipRule="evenodd"
                  d="M12 8.8C12 9.9201 12 10.4802 11.782 10.908C11.5903 11.2843 11.2843 11.5903 10.908 11.782C10.4802 12 9.9201 12 8.8 12L3.2 12C2.07989 12 1.51984 12 1.09202 11.782C0.715694 11.5903 0.409733 11.2843 0.217986 10.908C0 10.4802 0 9.9201 0 8.8V3.2C0 2.07989 0 1.51984 0.217987 1.09202C0.409734 0.715695 0.715695 0.409734 1.09202 0.217987C1.51984 0 2.0799 0 3.2 0H8.8C9.92011 0 10.4802 0 10.908 0.217988C11.2843 0.409735 11.5903 0.715696 11.782 1.09202C12 1.51984 12 2.0799 12 3.2L12 8.8ZM5 3.00004C5 2.44776 5.44772 2.00004 6 2.00004C6.55228 2.00004 7 2.44776 7 3.00004V5.00002H9C9.55229 5.00002 10 5.44774 10 6.00002C10 6.55231 9.55229 7.00002 9 7.00002H7V9.00004C7 9.55233 6.55228 10 6 10C5.44772 10 5 9.55233 5 9.00004V7.00002H3C2.44772 7.00002 2 6.55231 2 6.00002C2 5.44774 2.44772 5.00002 3 5.00002H5V3.00004Z"
                  fill="white"
                />
              </svg>