<svg width="12" height="12" viewBox="0 0 12 12" fill="none" xmlns="http://www.w3.org/2000/svg">
                                <path fillRule="evenodd" clipRule="evenodd" d="M2.5 12C1.11929 12 0 10.8807 0 9.5C0 8.11929 1.11929 7 2.5 7C3.88071 7 5 8.11929 5 9.5C5 10.8807 3.88071 12 2.5 12ZM9.5 12C8.11929 12 7 10.8807 7 9.5C7 8.11929 8.11929 7 9.5 7C10.8807 7 12 8.11929 12 9.5C12 10.8807 10.8807 12 9.5 12ZM0 2.5C0 3.88071 1.11929 5 2.5 5C3.88071 5 5 3.88071 5 2.5C5 1.11929 3.88071 0 2.5 0C1.11929 0 0 1.11929 0 2.5ZM9.5 5C8.11929 5 7 3.88071 7 2.5C7 1.11929 8.11929 0 9.5 0C10.8807 0 12 1.11929 12 2.5C12 3.88071 10.8807 5 9.5 5Z" fill="#009BF3" />
                            </svg>